<mxfile host="app.diagrams.net" modified="2022-03-26T18:58:33.905Z" agent="5.0 (Windows NT 10.0; Win64; x64) AppleWebKit/537.36 (KHTML, like Gecko) Chrome/99.0.4844.82 Safari/537.36" etag="npocvgrPktfbqRY9FBKG" version="17.2.4" type="github">
  <diagram id="hMZIwSdm6eqAgacvsNla" name="Page-1">
    <mxGraphModel dx="580" dy="1915" grid="1" gridSize="10" guides="1" tooltips="1" connect="1" arrows="1" fold="1" page="1" pageScale="1" pageWidth="827" pageHeight="1169" math="0" shadow="0">
      <root>
        <mxCell id="0" />
        <mxCell id="1" parent="0" />
        <mxCell id="R6J9GiGBxkvbOUhFSuAL-11" value="" style="edgeStyle=orthogonalEdgeStyle;rounded=0;orthogonalLoop=1;jettySize=auto;html=1;" edge="1" parent="1" source="R6J9GiGBxkvbOUhFSuAL-1" target="R6J9GiGBxkvbOUhFSuAL-4">
          <mxGeometry relative="1" as="geometry" />
        </mxCell>
        <mxCell id="R6J9GiGBxkvbOUhFSuAL-1" value="start" style="rounded=1;whiteSpace=wrap;html=1;" vertex="1" parent="1">
          <mxGeometry x="170" y="-10" width="120" height="60" as="geometry" />
        </mxCell>
        <mxCell id="R6J9GiGBxkvbOUhFSuAL-3" value="end" style="rounded=1;whiteSpace=wrap;html=1;" vertex="1" parent="1">
          <mxGeometry x="170" y="420" width="120" height="60" as="geometry" />
        </mxCell>
        <mxCell id="R6J9GiGBxkvbOUhFSuAL-7" value="" style="edgeStyle=orthogonalEdgeStyle;rounded=0;orthogonalLoop=1;jettySize=auto;html=1;" edge="1" parent="1" source="R6J9GiGBxkvbOUhFSuAL-4" target="R6J9GiGBxkvbOUhFSuAL-5">
          <mxGeometry relative="1" as="geometry" />
        </mxCell>
        <mxCell id="R6J9GiGBxkvbOUhFSuAL-4" value="a,b" style="shape=parallelogram;perimeter=parallelogramPerimeter;whiteSpace=wrap;html=1;fixedSize=1;" vertex="1" parent="1">
          <mxGeometry x="170" y="90" width="120" height="60" as="geometry" />
        </mxCell>
        <mxCell id="R6J9GiGBxkvbOUhFSuAL-9" value="" style="edgeStyle=orthogonalEdgeStyle;rounded=0;orthogonalLoop=1;jettySize=auto;html=1;" edge="1" parent="1" source="R6J9GiGBxkvbOUhFSuAL-5" target="R6J9GiGBxkvbOUhFSuAL-8">
          <mxGeometry relative="1" as="geometry" />
        </mxCell>
        <mxCell id="R6J9GiGBxkvbOUhFSuAL-5" value="c = a + b" style="rounded=0;whiteSpace=wrap;html=1;" vertex="1" parent="1">
          <mxGeometry x="170" y="190" width="120" height="60" as="geometry" />
        </mxCell>
        <mxCell id="R6J9GiGBxkvbOUhFSuAL-10" value="" style="edgeStyle=orthogonalEdgeStyle;rounded=0;orthogonalLoop=1;jettySize=auto;html=1;" edge="1" parent="1" source="R6J9GiGBxkvbOUhFSuAL-8" target="R6J9GiGBxkvbOUhFSuAL-3">
          <mxGeometry relative="1" as="geometry" />
        </mxCell>
        <mxCell id="R6J9GiGBxkvbOUhFSuAL-8" value="c" style="shape=document;whiteSpace=wrap;html=1;boundedLbl=1;rounded=0;" vertex="1" parent="1">
          <mxGeometry x="170" y="290" width="120" height="80" as="geometry" />
        </mxCell>
      </root>
    </mxGraphModel>
  </diagram>
</mxfile>
